<svg width="54" height="53" viewBox="0 0 54 53" fill="none" xmlns="http://www.w3.org/2000/svg">
<path d="M10.4822 17.4658L9.7509 17.2101C8.60666 16.81 8.00734 15.5694 8.40662 14.4275L12.2494 3.43765C12.5406 2.60483 13.3038 2.02376 14.1892 1.97683C15.0746 1.9299 15.9007 2.41147 16.2871 3.21147L18.6172 8.03462C28.7506 3.24316 40.8809 7.51363 45.7565 17.6207C50.6575 27.7655 46.4005 39.9402 36.2456 44.8206C26.0908 49.7009 13.8913 45.4351 8.99028 35.2903C8.29013 33.841 8.89958 32.0981 10.3503 31.4009C11.801 30.7037 13.5474 31.3144 14.2476 32.7637C17.7483 40.01 26.4635 43.0574 33.7169 39.5714C40.9704 36.0855 44.0116 27.3881 40.5108 20.1417C37.0269 12.9302 28.3896 9.88109 21.1576 13.2782L23.4566 18.0519C23.8431 18.8519 23.706 19.7964 23.1174 20.4579C22.5289 21.1193 21.5977 21.3525 20.7632 21.0607L10.4822 17.4658Z" fill="white"/>
<path d="M29.4496 33.2244C28.6162 33.2244 27.8658 33.0587 27.1982 32.7272C26.5305 32.3958 25.9955 31.9412 25.593 31.3636C25.1906 30.7859 24.9704 30.1278 24.9325 29.3891H26.6371C26.7034 30.0473 27.0017 30.5918 27.532 31.0227C28.067 31.4488 28.7062 31.6619 29.4496 31.6619C30.0462 31.6619 30.5765 31.5222 31.0405 31.2428C31.5092 30.9635 31.8762 30.58 32.1413 30.0923C32.4112 29.5998 32.5462 29.0435 32.5462 28.4232C32.5462 27.7888 32.4065 27.223 32.1271 26.7258C31.8525 26.2239 31.4737 25.8285 30.9908 25.5397C30.5078 25.2509 29.9562 25.1041 29.3359 25.0994C28.8909 25.0946 28.4339 25.1633 27.9652 25.3053C27.4964 25.4427 27.1106 25.6202 26.8075 25.838L25.1598 25.6391L26.0405 18.4801H33.5973V20.0426H27.5178L27.0064 24.3323H27.0916C27.3899 24.0956 27.764 23.8991 28.2138 23.7428C28.6636 23.5866 29.1323 23.5085 29.62 23.5085C30.5102 23.5085 31.3033 23.7215 31.9993 24.1477C32.7 24.5691 33.2493 25.1467 33.647 25.8806C34.0495 26.6145 34.2507 27.4526 34.2507 28.3948C34.2507 29.3229 34.0424 30.1515 33.6257 30.8806C33.2138 31.6051 32.6456 32.178 31.9212 32.5994C31.1967 33.016 30.3729 33.2244 29.4496 33.2244Z" fill="white"/>
</svg>
