<svg width="55" height="54" viewBox="0 0 55 54" fill="none" xmlns="http://www.w3.org/2000/svg">
<rect width="55" height="54" rx="27" fill="#0274D4"/>
<path d="M41.3931 28.5296C42.2023 27.6836 42.2023 26.3096 41.3931 25.4636L31.0354 14.6345C30.2262 13.7885 28.912 13.7885 28.1029 14.6345C27.2937 15.4805 27.2937 16.8545 28.1029 17.7005L34.9325 24.8342H15.0715C13.9257 24.8342 13 25.802 13 27C13 28.198 13.9257 29.1658 15.0715 29.1658H34.926L28.1093 36.2995C27.3001 37.1455 27.3001 38.5195 28.1093 39.3655C28.9185 40.2115 30.2327 40.2115 31.0419 39.3655L41.3996 28.5364L41.3931 28.5296Z" fill="white"/>
</svg>
