<svg width="68" height="44" viewBox="0 0 68 44" fill="none" xmlns="http://www.w3.org/2000/svg">
<path d="M48.8878 11.2942C50.1036 10.0838 50.1036 8.11815 48.8878 6.90778C47.6721 5.69741 45.6977 5.69741 44.482 6.90778L34.2406 17.1136L23.9895 6.91746C22.7738 5.70709 20.7994 5.70709 19.5837 6.91746C18.3679 8.12783 18.3679 10.0935 19.5837 11.3038L29.8348 21.5L19.5934 31.7058C18.3777 32.9162 18.3777 34.8819 19.5934 36.0922C20.8091 37.3026 22.7835 37.3026 23.9992 36.0922L34.2406 25.8864L44.4917 36.0825C45.7074 37.2929 47.6818 37.2929 48.8975 36.0825C50.1133 34.8722 50.1133 32.9065 48.8975 31.6962L38.6464 21.5L48.8878 11.2942Z" fill="#0274D4"/>
</svg>
