<svg width="18" height="21" viewBox="0 0 18 21" fill="none" xmlns="http://www.w3.org/2000/svg">
<path d="M0 1.4375C0 0.642383 0.670312 0 1.5 0H3.75H4.5H10.5C13.8141 0 16.5 2.57402 16.5 5.75C16.5 7.15605 15.9703 8.4498 15.0938 9.44707C16.8328 10.4533 18 12.2816 18 14.375C18 17.551 15.3141 20.125 12 20.125H4.5H3.75H1.5C0.670312 20.125 0 19.4826 0 18.6875C0 17.8924 0.670312 17.25 1.5 17.25H2.25V10.0625V2.875H1.5C0.670312 2.875 0 2.23262 0 1.4375ZM10.5 8.625C12.1547 8.625 13.5 7.33574 13.5 5.75C13.5 4.16426 12.1547 2.875 10.5 2.875H5.25V8.625H10.5ZM5.25 11.5V17.25H12C13.6547 17.25 15 15.9607 15 14.375C15 12.7893 13.6547 11.5 12 11.5H10.5H5.25Z" fill="black"/>
</svg>
