<svg width="18" height="21" viewBox="0 0 18 21" fill="none" xmlns="http://www.w3.org/2000/svg">
<path d="M0 1.875C0 1.07988 0.670312 0.4375 1.5 0.4375H3.75H4.5H10.5C13.8141 0.4375 16.5 3.01152 16.5 6.1875C16.5 7.59355 15.9703 8.8873 15.0938 9.88457C16.8328 10.8908 18 12.7191 18 14.8125C18 17.9885 15.3141 20.5625 12 20.5625H4.5H3.75H1.5C0.670312 20.5625 0 19.9201 0 19.125C0 18.3299 0.670312 17.6875 1.5 17.6875H2.25V10.5V3.3125H1.5C0.670312 3.3125 0 2.67012 0 1.875ZM10.5 9.0625C12.1547 9.0625 13.5 7.77324 13.5 6.1875C13.5 4.60176 12.1547 3.3125 10.5 3.3125H5.25V9.0625H10.5ZM5.25 11.9375V17.6875H12C13.6547 17.6875 15 16.3982 15 14.8125C15 13.2268 13.6547 11.9375 12 11.9375H10.5H5.25Z" fill="url(#paint0_linear_778_217)"/>
<defs>
<linearGradient id="paint0_linear_778_217" x1="9" y1="0.4375" x2="9" y2="20.5625" gradientUnits="userSpaceOnUse">
<stop stop-color="#0274D4"/>
<stop offset="1" stop-color="#FC8136"/>
</linearGradient>
</defs>
</svg>
