<svg width="507" height="507" viewBox="0 0 507 507" fill="none" xmlns="http://www.w3.org/2000/svg">
<path d="M471.6 16.425C449.7 -5.475 414.3 -5.475 392.4 16.425L362.3 46.425L460.2 144.325L490.3 114.225C512.2 92.325 512.2 56.925 490.3 35.025L471.6 16.425ZM172.4 236.425C166.3 242.525 161.6 250.025 158.9 258.325L129.3 347.125C126.4 355.725 128.7 365.225 135.1 371.725C141.5 378.225 151 380.425 159.7 377.525L248.5 347.925C256.7 345.125 264.2 340.525 270.4 334.425L437.7 167.025L339.7 69.025L172.4 236.425ZM96 58.725C43 58.725 0 101.725 0 154.725V410.725C0 463.725 43 506.725 96 506.725H352C405 506.725 448 463.725 448 410.725V314.725C448 297.025 433.7 282.725 416 282.725C398.3 282.725 384 297.025 384 314.725V410.725C384 428.425 369.7 442.725 352 442.725H96C78.3 442.725 64 428.425 64 410.725V154.725C64 137.025 78.3 122.725 96 122.725H192C209.7 122.725 224 108.425 224 90.725C224 73.025 209.7 58.725 192 58.725H96Z" fill="url(#paint0_linear_573_3)"/>
<defs>
<linearGradient id="paint0_linear_573_3" x1="2.92962e-06" y1="67" x2="435.5" y2="481" gradientUnits="userSpaceOnUse">
<stop stop-color="#0274D4"/>
<stop offset="1" stop-color="#FC8136"/>
</linearGradient>
</defs>
</svg>
