<svg width="38" height="37" viewBox="0 0 38 37" fill="none" xmlns="http://www.w3.org/2000/svg">
<path d="M13.2319 2.64286C13.2319 1.18103 12.0508 0 10.589 0C9.12718 0 7.94615 1.18103 7.94615 2.64286V7.92857H2.66044C1.1986 7.92857 0.0175781 9.1096 0.0175781 10.5714C0.0175781 12.0333 1.1986 13.2143 2.66044 13.2143H10.589C12.0508 13.2143 13.2319 12.0333 13.2319 10.5714V2.64286ZM2.66044 23.7857C1.1986 23.7857 0.0175781 24.9667 0.0175781 26.4286C0.0175781 27.8904 1.1986 29.0714 2.66044 29.0714H7.94615V34.3571C7.94615 35.819 9.12718 37 10.589 37C12.0508 37 13.2319 35.819 13.2319 34.3571V26.4286C13.2319 24.9667 12.0508 23.7857 10.589 23.7857H2.66044ZM29.089 2.64286C29.089 1.18103 27.908 0 26.4461 0C24.9843 0 23.8033 1.18103 23.8033 2.64286V10.5714C23.8033 12.0333 24.9843 13.2143 26.4461 13.2143H34.3747C35.8366 13.2143 37.0176 12.0333 37.0176 10.5714C37.0176 9.1096 35.8366 7.92857 34.3747 7.92857H29.089V2.64286ZM26.4461 23.7857C24.9843 23.7857 23.8033 24.9667 23.8033 26.4286V34.3571C23.8033 35.819 24.9843 37 26.4461 37C27.908 37 29.089 35.819 29.089 34.3571V29.0714H34.3747C35.8366 29.0714 37.0176 27.8904 37.0176 26.4286C37.0176 24.9667 35.8366 23.7857 34.3747 23.7857H26.4461Z" fill="white"/>
</svg>
