<svg width="37" height="17" viewBox="0 0 37 17" fill="none" xmlns="http://www.w3.org/2000/svg">
<path d="M0.35059 2.39421C0.228296 2.2514 0.134484 2.08388 0.0747827 1.9017C0.0150811 1.71952 -0.0092798 1.52643 0.00316151 1.33403C0.0156028 1.14163 0.06459 0.953873 0.147184 0.782027C0.229778 0.61018 0.344277 0.457786 0.483811 0.333986C0.623345 0.210186 0.785039 0.117533 0.959192 0.0615834C1.13334 0.0056343 1.31637 -0.0124571 1.49728 0.00839456C1.67819 0.0292462 1.85327 0.0886113 2.012 0.182928C2.17073 0.277245 2.30985 0.40457 2.42101 0.557264C3.77146 2.29455 5.27045 3.89593 6.89888 5.34099C10.7117 8.65451 14.669 10.3288 18.5931 10.3256C22.5173 10.3224 26.4535 8.65451 30.2392 5.30272C31.8358 3.87116 33.3036 2.28574 34.6238 0.566832C34.8528 0.280802 35.1787 0.101685 35.5313 0.0681491C35.8838 0.0346137 36.2347 0.149351 36.5081 0.38759C36.7815 0.625828 36.9555 0.968456 36.9926 1.3415C37.0297 1.71454 36.9268 2.08808 36.7063 2.38146C35.7662 3.59473 34.7615 4.75002 33.6969 5.84168L35.4754 7.5702C35.6199 7.69153 35.7392 7.84302 35.8261 8.01526C35.913 8.1875 35.9655 8.37682 35.9805 8.57148C35.9955 8.76614 35.9725 8.96199 35.9131 9.14686C35.8537 9.33174 35.7591 9.50171 35.6351 9.64623C35.5112 9.79074 35.3605 9.90672 35.1925 9.98696C35.0244 10.0672 34.8427 10.11 34.6584 10.1127C34.4741 10.1154 34.2913 10.078 34.1212 10.0027C33.9512 9.92738 33.7975 9.81586 33.6698 9.67504L31.6867 7.76155C30.4282 8.85714 29.075 9.82455 27.6452 10.6509L28.7677 13.2022C28.8965 13.5425 28.897 13.9223 28.7689 14.2629C28.6409 14.6036 28.3942 14.879 28.0799 15.0323C27.7655 15.1855 27.4077 15.2048 27.0803 15.0862C26.7529 14.9676 26.4811 14.7201 26.3211 14.395L25.1956 11.8437C23.5031 12.5425 21.7224 12.9724 19.9112 13.1193V15.6387C19.8948 16.0056 19.7458 16.3516 19.4951 16.6051C19.2443 16.8586 18.9111 17 18.5645 17C18.218 17 17.8848 16.8586 17.634 16.6051C17.3833 16.3516 17.2342 16.0056 17.2179 15.6387V13.1193C15.4111 12.9688 13.6349 12.5391 11.9455 11.8437L10.814 14.395C10.7441 14.5729 10.6409 14.734 10.5107 14.8686C10.3805 15.0031 10.226 15.1084 10.0564 15.178C9.88676 15.2476 9.70562 15.2802 9.52385 15.2736C9.34208 15.2671 9.16343 15.2217 8.99866 15.1401C8.83389 15.0585 8.6864 14.9424 8.56507 14.7988C8.44375 14.6552 8.35109 14.4871 8.29268 14.3046C8.23427 14.122 8.21132 13.9289 8.2252 13.7367C8.23908 13.5445 8.28951 13.3573 8.37345 13.1863L9.49894 10.635C8.07 9.8098 6.71519 8.84799 5.4514 7.76155L3.48029 9.67504C3.3526 9.81586 3.19896 9.92738 3.02891 10.0027C2.85886 10.078 2.67602 10.1154 2.49175 10.1127C2.30747 10.11 2.12569 10.0672 1.95767 9.98696C1.78965 9.90672 1.63898 9.79074 1.51501 9.64623C1.39104 9.50171 1.29642 9.33174 1.23701 9.14686C1.17759 8.96199 1.15466 8.76614 1.16963 8.57148C1.18461 8.37682 1.23716 8.1875 1.32404 8.01526C1.41093 7.84302 1.53028 7.69153 1.67469 7.5702L3.42913 5.8672C2.34127 4.77273 1.31341 3.61317 0.35059 2.39421Z" fill="#0274D4"/>
</svg>
