<svg width="38" height="30" viewBox="0 0 38 30" fill="none" xmlns="http://www.w3.org/2000/svg">
<path d="M18.9967 0C13.6666 0 9.39858 2.46429 6.29155 5.39732C3.20432 8.30357 1.13957 11.7857 0.163267 14.1763C-0.0544224 14.7054 -0.0544224 15.2946 0.163267 15.8237C1.13957 18.2143 3.20432 21.6964 6.29155 24.6027C9.39858 27.5357 13.6666 30 18.9967 30C24.3268 30 28.5948 27.5357 31.7018 24.6027C34.7891 21.6897 36.8538 18.2143 37.8367 15.8237C38.0544 15.2946 38.0544 14.7054 37.8367 14.1763C36.8538 11.7857 34.7891 8.30357 31.7018 5.39732C28.5948 2.46429 24.3268 0 18.9967 0ZM28.4959 15C28.4959 20.3237 24.241 24.6429 18.9967 24.6429C13.7524 24.6429 9.49753 20.3237 9.49753 15C9.49753 9.67634 13.7524 5.35714 18.9967 5.35714C24.241 5.35714 28.4959 9.67634 28.4959 15ZM18.9967 10.7143C18.9967 13.0781 17.1035 15 14.7748 15C14.0162 15 13.3038 14.7991 12.6903 14.4375C12.6771 14.625 12.6639 14.8058 12.6639 15C12.6639 18.5491 15.5005 21.4286 18.9967 21.4286C22.4929 21.4286 25.3295 18.5491 25.3295 15C25.3295 11.4509 22.4929 8.57143 18.9967 8.57143C18.812 8.57143 18.6273 8.57812 18.4426 8.59821C18.7922 9.22098 18.9967 9.9442 18.9967 10.7143Z" fill="#0274D4"/>
</svg>
