<svg width="51" height="43" viewBox="0 0 51 43" fill="none" xmlns="http://www.w3.org/2000/svg">
<path d="M6.43187 23.5201L6.4345 23.5225L24.4337 40.0899C24.7147 40.3485 25.0949 40.5 25.5 40.5C25.9051 40.5 26.2853 40.3485 26.5663 40.0899L44.5655 23.5225L44.5681 23.5201C47.0826 21.2123 48.5 17.9806 48.5 14.6083V14.0387C48.5 8.42379 44.3817 3.59338 38.7013 2.65833L6.43187 23.5201ZM6.43187 23.5201C3.9174 21.2123 2.5 17.9806 2.5 14.6083V14.0387C2.5 8.42379 6.61829 3.59338 12.2987 2.65833L6.43187 23.5201ZM25.5 8.79912L23.7448 7.06863L22.5495 5.89014C19.8759 3.25419 16.059 2.04063 12.2993 2.65824L25.5 8.79912ZM25.5 8.79912L27.2552 7.06863M25.5 8.79912L27.2552 7.06863M27.2552 7.06863L28.4505 5.89014C31.1241 3.25419 34.941 2.04063 38.7007 2.65824L27.2552 7.06863Z" stroke="url(#paint0_linear_406_10)" stroke-width="5"/>
<defs>
<linearGradient id="paint0_linear_406_10" x1="25.5" y1="0" x2="25.5" y2="43" gradientUnits="userSpaceOnUse">
<stop stop-color="#0274D4"/>
<stop offset="1" stop-color="#FC8136"/>
</linearGradient>
</defs>
</svg>
