<svg width="1520" height="461" viewBox="0 0 1520 461" fill="none" xmlns="http://www.w3.org/2000/svg">
<g filter="url(#filter0_d_217_5)">
<g clip-path="url(#clip0_217_5)">
<rect width="148" height="778.445" transform="translate(1100.32 283.741)" fill="black"/>
<rect width="148" height="778.445" transform="translate(1093 273)" fill="#0274D4"/>
<circle cx="1175.46" cy="360.367" r="40" transform="rotate(-17.3685 1175.46 360.367)" fill="white"/>
<path d="M1164.03 343.189C1164.03 341.491 1165.37 340.118 1167.03 340.118C1168.69 340.118 1170.03 341.491 1170.03 343.19L1170.03 343.938C1170.03 346.597 1169.8 349.246 1169.36 351.857L1161.45 354.285C1157.64 355.456 1155.04 359.045 1155.04 363.115L1155.04 370.016C1155.04 373.856 1158.08 376.975 1161.83 376.975C1164.27 376.975 1166.52 375.641 1167.73 373.472L1169.03 371.14C1171.55 366.629 1173.39 361.762 1174.51 356.694L1183.36 353.978L1182.19 357.578C1181.88 358.518 1182.04 359.545 1182.6 360.342C1183.16 361.139 1184.07 361.619 1185.04 361.619L1197.03 361.619C1198.69 361.619 1200.03 360.246 1200.03 358.548C1200.03 356.849 1198.69 355.476 1197.03 355.476L1189.19 355.476L1190.88 350.302C1191.23 349.218 1190.96 348.018 1190.18 347.193C1189.41 346.367 1188.24 346.06 1187.16 346.386L1175.69 349.918C1175.91 347.931 1176.03 345.944 1176.03 343.938L1176.03 343.19C1176.03 338.103 1172 333.975 1167.03 333.975C1162.06 333.975 1158.03 338.102 1158.03 343.189L1158.03 346.261C1158.03 347.96 1159.37 349.332 1161.03 349.332C1162.69 349.332 1164.03 347.96 1164.03 346.261L1164.03 343.189ZM1163.16 360.178L1167.76 358.767C1166.78 362.012 1165.46 365.141 1163.81 368.097L1162.51 370.429C1162.37 370.679 1162.1 370.842 1161.81 370.842C1161.37 370.842 1161.02 370.477 1161.02 370.026L1161.02 363.115C1161.02 361.762 1161.89 360.562 1163.15 360.169L1163.16 360.178ZM1148.28 366.225C1147.03 366.225 1146.03 367.252 1146.03 368.528C1146.03 369.805 1147.03 370.832 1148.28 370.832L1152.05 370.832C1152.04 370.563 1152.03 370.295 1152.03 370.016L1152.03 366.225L1148.28 366.225ZM1203.78 370.833C1205.02 370.833 1206.03 369.806 1206.03 368.53C1206.03 367.253 1205.02 366.226 1203.78 366.226L1174.7 366.225C1174.08 367.79 1173.37 369.326 1172.61 370.833L1203.78 370.833Z" fill="#0274D4"/>
<rect width="148" height="778.445" transform="translate(1310.32 55.7407)" fill="black"/>
<rect width="148" height="778.445" transform="translate(1303 45)" fill="#294263"/>
<circle cx="1385.46" cy="132.367" r="40" transform="rotate(-17.3685 1385.46 132.367)" fill="white"/>
<path d="M1374.03 115.189C1374.03 113.49 1375.37 112.118 1377.03 112.118C1378.69 112.118 1380.03 113.491 1380.03 115.19L1380.03 115.938C1380.03 118.597 1379.8 121.246 1379.36 123.857L1371.45 126.285C1367.64 127.456 1365.04 131.045 1365.04 135.115L1365.04 142.016C1365.04 145.855 1368.08 148.975 1371.83 148.975C1374.27 148.975 1376.52 147.641 1377.73 145.472L1379.03 143.139C1381.55 138.628 1383.39 133.762 1384.51 128.694L1393.36 125.978L1392.19 129.578C1391.88 130.518 1392.04 131.545 1392.6 132.342C1393.16 133.139 1394.07 133.618 1395.04 133.618L1407.03 133.619C1408.69 133.619 1410.03 132.246 1410.03 130.547C1410.03 128.849 1408.69 127.476 1407.03 127.476L1399.19 127.476L1400.88 122.302C1401.23 121.218 1400.96 120.018 1400.18 119.192C1399.41 118.367 1398.24 118.06 1397.16 118.386L1385.69 121.918C1385.91 119.931 1386.03 117.944 1386.03 115.938L1386.03 115.19C1386.03 110.103 1382 105.975 1377.03 105.975C1372.06 105.975 1368.03 110.102 1368.03 115.189L1368.03 118.261C1368.03 119.96 1369.37 121.332 1371.03 121.332C1372.69 121.332 1374.03 119.96 1374.03 118.261L1374.03 115.189ZM1373.16 132.178L1377.76 130.767C1376.78 134.012 1375.46 137.141 1373.81 140.097L1372.51 142.429C1372.37 142.679 1372.1 142.842 1371.81 142.842C1371.37 142.842 1371.02 142.477 1371.02 142.026L1371.02 135.115C1371.02 133.762 1371.89 132.562 1373.15 132.169L1373.16 132.178ZM1358.28 138.225C1357.03 138.225 1356.03 139.252 1356.03 140.528C1356.03 141.805 1357.03 142.832 1358.28 142.832L1362.05 142.832C1362.04 142.563 1362.03 142.294 1362.03 142.016L1362.03 138.225L1358.28 138.225ZM1413.78 142.833C1415.02 142.833 1416.03 141.806 1416.03 140.53C1416.03 139.253 1415.02 138.226 1413.78 138.226L1384.7 138.225C1384.08 139.79 1383.37 141.326 1382.61 142.832L1413.78 142.833Z" fill="#294263"/>
<rect width="148" height="778.445" transform="translate(890.324 320.741)" fill="black"/>
<rect width="148" height="778.445" transform="translate(883 310)" fill="#FC8136"/>
<circle cx="965.462" cy="397.367" r="40" transform="rotate(-17.3685 965.462 397.367)" fill="white"/>
<path d="M954.028 380.189C954.028 378.491 955.369 377.118 957.028 377.118C958.688 377.118 960.028 378.491 960.028 380.19L960.028 380.938C960.028 383.597 959.803 386.246 959.362 388.857L951.45 391.285C947.643 392.456 945.037 396.045 945.037 400.115L945.037 407.016C945.037 410.856 948.083 413.975 951.833 413.975C954.271 413.975 956.521 412.641 957.73 410.472L959.034 408.14C961.546 403.629 963.393 398.762 964.509 393.694L973.359 390.978L972.187 394.578C971.878 395.518 972.037 396.545 972.6 397.342C973.162 398.139 974.071 398.619 975.037 398.619L987.028 398.619C988.687 398.619 990.028 397.246 990.028 395.548C990.028 393.849 988.687 392.476 987.028 392.476L979.19 392.476L980.878 387.302C981.234 386.218 980.962 385.018 980.184 384.193C979.406 383.367 978.244 383.06 977.166 383.386L965.69 386.918C965.915 384.931 966.028 382.944 966.028 380.938L966.028 380.19C966.028 375.103 961.997 370.975 957.028 370.975C952.06 370.975 948.028 375.102 948.028 380.189L948.028 383.261C948.028 384.96 949.369 386.332 951.028 386.332C952.687 386.332 954.028 384.96 954.028 383.261L954.028 380.189ZM953.165 397.178L957.759 395.767C956.784 399.012 955.462 402.141 953.812 405.097L952.509 407.429C952.368 407.679 952.105 407.842 951.815 407.842C951.374 407.842 951.018 407.477 951.018 407.026L951.018 400.115C951.018 398.762 951.89 397.562 953.156 397.169L953.165 397.178ZM938.277 403.225C937.031 403.225 936.027 404.252 936.027 405.528C936.027 406.805 937.031 407.832 938.277 407.832L942.056 407.832C942.037 407.563 942.027 407.295 942.027 407.016L942.027 403.225L938.277 403.225ZM993.777 407.833C995.024 407.833 996.027 406.806 996.027 405.53C996.027 404.253 995.024 403.226 993.777 403.226L964.706 403.225C964.077 404.79 963.374 406.326 962.615 407.833L993.777 407.833Z" fill="#FC8136"/>
<rect width="148" height="778.445" transform="translate(709.846 343.278) rotate(15.0989)" fill="black"/>
<rect width="148" height="778.445" transform="translate(705.572 331) rotate(15.0989)" fill="#294263"/>
<circle cx="762.43" cy="436.831" r="40" transform="rotate(-2.26965 762.43 436.831)" fill="white"/>
<path d="M755.865 417.268C756.307 415.628 757.959 414.652 759.561 415.084C761.163 415.516 762.1 417.191 761.658 418.831L761.463 419.554C760.77 422.121 759.863 424.62 758.757 427.026L750.485 427.309C746.505 427.448 743.054 430.235 741.994 434.164L740.196 440.827C739.196 444.533 741.325 448.339 744.945 449.316C747.299 449.951 749.818 449.249 751.551 447.469L753.417 445.557C757.018 441.856 760.069 437.639 762.466 433.037L771.718 432.72L769.649 435.89C769.105 436.717 768.992 437.75 769.327 438.666C769.663 439.582 770.416 440.282 771.348 440.533L782.924 443.657C784.527 444.089 786.178 443.114 786.621 441.473C787.064 439.833 786.127 438.159 784.525 437.726L776.958 435.685L779.935 431.129C780.561 430.175 780.611 428.946 780.075 427.946C779.539 426.947 778.497 426.347 777.371 426.381L765.372 426.802C766.107 424.943 766.733 423.054 767.255 421.117L767.45 420.394C768.776 415.483 765.959 410.448 761.162 409.153C756.364 407.859 751.397 410.794 750.072 415.705L749.272 418.67C748.829 420.311 749.766 421.985 751.368 422.417C752.97 422.85 754.622 421.874 755.065 420.233L755.865 417.268ZM750.606 433.446L755.409 433.28C753.623 436.158 751.531 438.835 749.168 441.259L747.302 443.172C747.101 443.376 746.806 443.465 746.525 443.389C746.1 443.275 745.851 442.83 745.968 442.394L747.768 435.722C748.121 434.415 749.275 433.484 750.6 433.434L750.606 433.446ZM734.658 435.405C733.454 435.081 732.218 435.811 731.885 437.043C731.553 438.276 732.254 439.529 733.457 439.853L737.105 440.838C737.157 440.573 737.218 440.311 737.29 440.043L738.278 436.382L734.658 435.405ZM787.041 454.312C788.245 454.637 789.481 453.906 789.813 452.674C790.146 451.441 789.445 450.188 788.241 449.864L760.173 442.29C759.159 443.637 758.08 444.936 756.955 446.194L787.041 454.312Z" fill="#294263"/>
</g>
<path d="M1516 452H4V454H1516V452Z" fill="#0274D4" mask="url(#path-1-inside-1_217_5)"/>
</g>
<defs>
<filter id="filter0_d_217_5" x="0" y="0" width="1520" height="461" filterUnits="userSpaceOnUse" color-interpolation-filters="sRGB">
<feFlood flood-opacity="0" result="BackgroundImageFix"/>
<feColorMatrix in="SourceAlpha" type="matrix" values="0 0 0 0 0 0 0 0 0 0 0 0 0 0 0 0 0 0 127 0" result="hardAlpha"/>
<feOffset dy="4"/>
<feGaussianBlur stdDeviation="2"/>
<feComposite in2="hardAlpha" operator="out"/>
<feColorMatrix type="matrix" values="0 0 0 0 0 0 0 0 0 0 0 0 0 0 0 0 0 0 0.25 0"/>
<feBlend mode="normal" in2="BackgroundImageFix" result="effect1_dropShadow_217_5"/>
<feBlend mode="normal" in="SourceGraphic" in2="effect1_dropShadow_217_5" result="shape"/>
</filter>
<clipPath id="clip0_217_5">
<path d="M4 0H1516V453H4V0Z" fill="white"/>
</clipPath>
</defs>
</svg>
