<svg width="35" height="38" viewBox="0 0 35 38" fill="none" xmlns="http://www.w3.org/2000/svg">
<path d="M2.5 0.357204C1.11719 0.357204 0 1.53823 0 3.00006V10.9286C0 12.3905 1.11719 13.5715 2.5 13.5715C3.88281 13.5715 5 12.3905 5 10.9286V5.64292H10C11.3828 5.64292 12.5 4.46189 12.5 3.00006C12.5 1.53823 11.3828 0.357204 10 0.357204H2.5ZM5 26.7858C5 25.3239 3.88281 24.1429 2.5 24.1429C1.11719 24.1429 0 25.3239 0 26.7858V34.7143C0 36.1762 1.11719 37.3572 2.5 37.3572H10C11.3828 37.3572 12.5 36.1762 12.5 34.7143C12.5 33.2525 11.3828 32.0715 10 32.0715H5V26.7858ZM25 0.357204C23.6172 0.357204 22.5 1.53823 22.5 3.00006C22.5 4.46189 23.6172 5.64292 25 5.64292H30V10.9286C30 12.3905 31.1172 13.5715 32.5 13.5715C33.8828 13.5715 35 12.3905 35 10.9286V3.00006C35 1.53823 33.8828 0.357204 32.5 0.357204H25ZM35 26.7858C35 25.3239 33.8828 24.1429 32.5 24.1429C31.1172 24.1429 30 25.3239 30 26.7858V32.0715H25C23.6172 32.0715 22.5 33.2525 22.5 34.7143C22.5 36.1762 23.6172 37.3572 25 37.3572H32.5C33.8828 37.3572 35 36.1762 35 34.7143V26.7858Z" fill="white"/>
</svg>
