<svg width="39" height="39" viewBox="0 0 39 39" fill="none" xmlns="http://www.w3.org/2000/svg">
<path d="M34.5191 32.5H4.48094C3.35237 32.5 2.4375 31.5851 2.4375 30.4566V8.54344C2.4375 7.41488 3.35237 6.5 4.48094 6.5H34.5183C35.6476 6.5 36.5625 7.41488 36.5625 8.54344V30.4558C36.5625 31.5851 35.6476 32.5 34.5191 32.5Z" fill="url(#paint0_linear_85_4)"/>
<path d="M34.5191 32.5H6.5L36.5625 8.9375V30.4566C36.5625 31.5851 35.6476 32.5 34.5191 32.5Z" fill="url(#paint1_linear_85_4)"/>
<path d="M4.48094 6.5H6.5V32.5H4.48094C3.35237 32.5 2.4375 31.5851 2.4375 30.4566V8.54344C2.4375 7.41488 3.35237 6.5 4.48094 6.5ZM34.5191 6.5H32.5V32.5H34.5191C35.6476 32.5 36.5625 31.5851 36.5625 30.4566V8.54344C36.5625 7.41488 35.6476 6.5 34.5191 6.5Z" fill="url(#paint2_linear_85_4)"/>
<path d="M34.5191 32.5H24.7934L2.4375 9.33156V8.54425C2.4375 7.41487 3.35237 6.5 4.48094 6.5H34.5182C35.6476 6.5 36.5625 7.41488 36.5625 8.54344V30.4558C36.5625 31.5851 35.6476 32.5 34.5191 32.5Z" fill="url(#paint3_linear_85_4)"/>
<path d="M35.6054 10.6446L19.5 22.3104L3.39462 10.6446C2.79337 10.2091 2.4375 9.51194 2.4375 8.76931V8.54344C2.4375 7.41488 3.35237 6.5 4.48094 6.5H34.5183C35.6476 6.5 36.5625 7.41488 36.5625 8.54344V8.76931C36.5625 9.51194 36.2066 10.2091 35.6054 10.6446Z" fill="url(#paint4_linear_85_4)"/>
<path d="M34.5191 6.5H34.2753L19.5 17.2023L4.72469 6.5H4.48094C3.35237 6.5 2.4375 7.41488 2.4375 8.54344V8.76931C2.4375 9.51194 2.79337 10.2091 3.39462 10.6446L19.5 22.3104L35.6054 10.6446C36.2066 10.2091 36.5625 9.51194 36.5625 8.76931V8.54344C36.5625 7.41488 35.6476 6.5 34.5191 6.5Z" fill="url(#paint5_linear_85_4)"/>
<defs>
<linearGradient id="paint0_linear_85_4" x1="12.246" y1="11.0695" x2="19.5902" y2="19.6048" gradientUnits="userSpaceOnUse">
<stop stop-color="#E3E3E3"/>
<stop offset="1" stop-color="#E2E2E2"/>
</linearGradient>
<linearGradient id="paint1_linear_85_4" x1="21.4931" y1="20.6708" x2="29.3881" y2="30.5849" gradientUnits="userSpaceOnUse">
<stop stop-color="#F5F5F5"/>
<stop offset="0.03" stop-color="#EEEEEE"/>
<stop offset="1" stop-color="#EEEEEE"/>
</linearGradient>
<linearGradient id="paint2_linear_85_4" x1="2.4375" y1="19.5" x2="36.5625" y2="19.5" gradientUnits="userSpaceOnUse">
<stop stop-color="#D74A39"/>
<stop offset="1" stop-color="#C73D28"/>
</linearGradient>
<linearGradient id="paint3_linear_85_4" x1="19.5" y1="6.5" x2="19.5" y2="31.0221" gradientUnits="userSpaceOnUse">
<stop stop-opacity="0.15"/>
<stop offset="1" stop-opacity="0.03"/>
</linearGradient>
<linearGradient id="paint4_linear_85_4" x1="2.4375" y1="14.4056" x2="36.5625" y2="14.4056" gradientUnits="userSpaceOnUse">
<stop stop-color="#F5F5F5"/>
<stop offset="1" stop-color="#F5F5F5"/>
</linearGradient>
<linearGradient id="paint5_linear_85_4" x1="19.5" y1="6.86238" x2="19.5" y2="22.5964" gradientUnits="userSpaceOnUse">
<stop stop-color="#0274D4"/>
<stop offset="1" stop-color="#DE4735"/>
</linearGradient>
</defs>
</svg>
