<svg width="47" height="40" viewBox="0 0 47 40" fill="none" xmlns="http://www.w3.org/2000/svg">
<path d="M5.04914 22.859L5.05019 22.8599L21.6378 38.2715C21.6378 38.2716 21.6379 38.2716 21.6379 38.2716C22.1404 38.7384 22.8057 39 23.5 39C24.1943 39 24.8596 38.7384 25.3621 38.2716C25.3621 38.2716 25.3622 38.2716 25.3622 38.2715L41.9498 22.8599L41.9509 22.859C44.5369 20.4631 46 17.1023 46 13.5891V13.0592C46 7.166 41.7214 2.13558 35.8756 1.16455C32.0064 0.522849 28.0708 1.78145 25.307 4.53196L24.2054 5.62823L23.5 6.33024L22.7946 5.62823L21.693 4.53196C18.9292 1.78145 14.9936 0.522848 11.1244 1.16455L5.04914 22.859ZM5.04914 22.859C2.46309 20.4631 1 17.1023 1 13.5891V13.0592C1 7.16608 5.27846 2.13571 11.1242 1.16458L5.04914 22.859Z" stroke="url(#paint0_linear_220_33)" stroke-width="2"/>
<defs>
<linearGradient id="paint0_linear_220_33" x1="23.5" y1="0" x2="23.5" y2="40" gradientUnits="userSpaceOnUse">
<stop stop-color="#0274D4"/>
<stop offset="1" stop-color="#FC8136"/>
</linearGradient>
</defs>
</svg>
