<svg width="64" height="64" viewBox="0 0 64 64" fill="none" xmlns="http://www.w3.org/2000/svg">
<path d="M32.5032 25.0648C28.3886 25.0648 25.0697 28.3844 25.0697 32.5C25.0697 36.6156 28.3886 39.9352 32.5032 39.9352C36.6179 39.9352 39.9368 36.6156 39.9368 32.5C39.9368 28.3844 36.6179 25.0648 32.5032 25.0648ZM32.5032 37.3339C29.8442 37.3339 27.6704 35.1661 27.6704 32.5C27.6704 29.8339 29.8378 27.6661 32.5032 27.6661C35.1687 27.6661 37.336 29.8339 37.336 32.5C37.336 35.1661 35.1622 37.3339 32.5032 37.3339V37.3339ZM41.9747 24.7606C41.9747 25.7248 41.1984 26.4949 40.2409 26.4949C39.2769 26.4949 38.507 25.7183 38.507 24.7606C38.507 23.8029 39.2834 23.0264 40.2409 23.0264C41.1984 23.0264 41.9747 23.8029 41.9747 24.7606ZM46.8981 26.5208C46.7881 24.1976 46.2576 22.1399 44.5561 20.4444C42.8611 18.749 40.8037 18.2184 38.4812 18.1019C36.0874 17.966 28.9126 17.966 26.5189 18.1019C24.2027 18.2119 22.1454 18.7426 20.4439 20.438C18.7424 22.1334 18.2183 24.1912 18.1019 26.5143C17.966 28.9086 17.966 36.085 18.1019 38.4792C18.2119 40.8024 18.7424 42.8601 20.4439 44.5556C22.1454 46.251 24.1963 46.7816 26.5189 46.8981C28.9126 47.034 36.0874 47.034 38.4812 46.8981C40.8037 46.7881 42.8611 46.2574 44.5561 44.5556C46.2511 42.8601 46.7817 40.8024 46.8981 38.4792C47.034 36.085 47.034 28.915 46.8981 26.5208V26.5208ZM43.8056 41.0483C43.301 42.3166 42.3241 43.2937 41.0496 43.8049C39.1411 44.562 34.6123 44.3873 32.5032 44.3873C30.3941 44.3873 25.859 44.5556 23.9569 43.8049C22.6888 43.3002 21.7119 42.323 21.2008 41.0483C20.4439 39.1393 20.6186 34.6096 20.6186 32.5C20.6186 30.3904 20.4504 25.8542 21.2008 23.9517C21.7055 22.6834 22.6824 21.7063 23.9569 21.1951C25.8654 20.438 30.3941 20.6127 32.5032 20.6127C34.6123 20.6127 39.1475 20.4444 41.0496 21.1951C42.3176 21.6998 43.2945 22.6769 43.8056 23.9517C44.5626 25.8607 44.3879 30.3904 44.3879 32.5C44.3879 34.6096 44.5626 39.1458 43.8056 41.0483Z" fill="url(#paint0_linear_173_157)"/>
<rect x="1" y="1" width="62" height="62" rx="31" stroke="url(#paint1_linear_173_157)" stroke-width="2"/>
<defs>
<linearGradient id="paint0_linear_173_157" x1="20.5" y1="20.5" x2="44" y2="46" gradientUnits="userSpaceOnUse">
<stop stop-color="#0274D4"/>
<stop offset="1" stop-color="#FC8136"/>
</linearGradient>
<linearGradient id="paint1_linear_173_157" x1="7" y1="9" x2="51" y2="56.5" gradientUnits="userSpaceOnUse">
<stop stop-color="#0274D4"/>
<stop offset="1" stop-color="#FC8136"/>
</linearGradient>
</defs>
</svg>
