<svg width="24" height="21" viewBox="0 0 24 21" fill="none" xmlns="http://www.w3.org/2000/svg">
<path d="M23.4977 11.7355C24.1674 11.0521 24.1674 9.9424 23.4977 9.25908L14.9258 0.512495C14.2562 -0.170832 13.1686 -0.170832 12.4989 0.512495C11.8292 1.19582 11.8292 2.30554 12.4989 2.98887L18.151 8.75068H1.71438C0.766114 8.75068 0 9.53241 0 10.5C0 11.4676 0.766114 12.2493 1.71438 12.2493H18.1457L12.5043 18.0111C11.8346 18.6945 11.8346 19.8042 12.5043 20.4875C13.1739 21.1708 14.2615 21.1708 14.9312 20.4875L23.5031 11.7409L23.4977 11.7355Z" fill="url(#paint0_linear_759_106)"/>
<defs>
<linearGradient id="paint0_linear_759_106" x1="1.5" y1="3" x2="24" y2="18" gradientUnits="userSpaceOnUse">
<stop stop-color="#0274D4"/>
<stop offset="1" stop-color="#FC8136"/>
</linearGradient>
</defs>
</svg>
