<svg width="121" height="86" viewBox="0 0 121 86" fill="none" xmlns="http://www.w3.org/2000/svg">
<path d="M36.3 18.4286C36.3 15.0308 39.0036 12.2857 42.35 12.2857C45.6964 12.2857 48.4 15.0308 48.4 18.4286V19.9259C48.4 25.2433 47.9463 30.5415 47.0577 35.7629L31.1008 40.6196C23.4248 42.9616 18.1689 50.1411 18.1689 58.2804V72.0826C18.1689 79.7612 24.3134 86 31.8759 86C36.7916 86 41.3291 83.3317 43.768 78.9933L46.3959 74.3286C51.4628 65.3063 55.1873 55.5737 57.4372 45.4379L75.2847 40.0054L72.9214 47.204C72.2975 49.0853 72.6189 51.1393 73.7533 52.7326C74.8877 54.3259 76.7216 55.2857 78.6689 55.2857H102.85C106.196 55.2857 108.9 52.5406 108.9 49.1429C108.9 45.7451 106.196 43 102.85 43H87.0444L90.4475 32.6531C91.1659 30.4839 90.6177 28.0844 89.0484 26.4335C87.4792 24.7826 85.1348 24.1683 82.9606 24.821L59.8194 31.8853C60.2731 27.9116 60.5 23.9379 60.5 19.9259V18.4286C60.5 8.25446 52.3703 0 42.35 0C32.3297 0 24.2 8.25446 24.2 18.4286V24.5714C24.2 27.9692 26.9036 30.7143 30.25 30.7143C33.5964 30.7143 36.3 27.9692 36.3 24.5714V18.4286ZM34.5606 52.4062L43.8247 49.5844C41.8584 56.0728 39.1927 62.3308 35.8652 68.2433L33.2372 72.908C32.9536 73.4071 32.4242 73.7335 31.8381 73.7335C30.9495 73.7335 30.2311 73.004 30.2311 72.1018V58.2804C30.2311 55.5737 31.9894 53.1741 34.5417 52.3871L34.5606 52.4062ZM4.5375 64.5C2.02297 64.5 0 66.554 0 69.1071C0 71.6603 2.02297 73.7143 4.5375 73.7143H12.1567C12.1189 73.1768 12.1 72.6393 12.1 72.0826V64.5H4.5375ZM116.463 73.7143C118.977 73.7143 121 71.6603 121 69.1071C121 66.554 118.977 64.5 116.463 64.5H57.8342C56.5675 67.629 55.1495 70.7004 53.6181 73.7143H116.463Z" fill="#0274D4"/>
</svg>
