<svg width="55" height="53" viewBox="0 0 55 53" fill="none" xmlns="http://www.w3.org/2000/svg">
<path d="M43.8733 17.4658L44.6046 17.2101C45.7488 16.81 46.3481 15.5694 45.9488 14.4275L42.1061 3.43765C41.8148 2.60483 41.0517 2.02376 40.1663 1.97683C39.2809 1.9299 38.4548 2.41147 38.0683 3.21147L35.7382 8.03462C25.6048 3.24316 13.4745 7.51363 8.59894 17.6207C3.69793 27.7655 7.95501 39.9402 18.1098 44.8206C28.2647 49.7009 40.4642 45.4351 45.3652 35.2903C46.0653 33.841 45.4559 32.0981 44.0052 31.4009C42.5545 30.7037 40.808 31.3144 40.1079 32.7637C36.6072 40.01 27.892 43.0574 20.6386 39.5714C13.3851 36.0855 10.3439 27.3881 13.8446 20.1417C17.3285 12.9302 25.9659 9.88109 33.1979 13.2782L30.8988 18.0519C30.5124 18.8519 30.6495 19.7964 31.238 20.4579C31.8266 21.1193 32.7578 21.3525 33.5923 21.0607L43.8733 17.4658Z" fill="white"/>
<path d="M24.4496 34.1989C23.6162 34.1989 22.8658 34.0331 22.1982 33.7017C21.5305 33.3703 20.9955 32.9157 20.593 32.3381C20.1906 31.7604 19.9704 31.1023 19.9325 30.3636H21.6371C21.7034 31.0218 22.0017 31.5663 22.532 31.9972C23.067 32.4233 23.7062 32.6364 24.4496 32.6364C25.0462 32.6364 25.5765 32.4967 26.0405 32.2173C26.5092 31.938 26.8762 31.5545 27.1413 31.0668C27.4112 30.5743 27.5462 30.018 27.5462 29.3977C27.5462 28.7633 27.4065 28.1974 27.1271 27.7003C26.8525 27.1984 26.4737 26.803 25.9908 26.5142C25.5078 26.2254 24.9562 26.0786 24.3359 26.0739C23.8909 26.0691 23.4339 26.1378 22.9652 26.2798C22.4964 26.4171 22.1106 26.5947 21.8075 26.8125L20.1598 26.6136L21.0405 19.4545H28.5973V21.017H22.5178L22.0064 25.3068H22.0916C22.3899 25.0701 22.764 24.8736 23.2138 24.7173C23.6636 24.5611 24.1323 24.483 24.62 24.483C25.5102 24.483 26.3033 24.696 26.9993 25.1222C27.7 25.5436 28.2493 26.1212 28.647 26.8551C29.0495 27.589 29.2507 28.4271 29.2507 29.3693C29.2507 30.2973 29.0424 31.1259 28.6257 31.8551C28.2138 32.5795 27.6456 33.1525 26.9212 33.5739C26.1967 33.9905 25.3729 34.1989 24.4496 34.1989Z" fill="white"/>
</svg>
