<svg width="34" height="40" viewBox="0 0 34 40" fill="none" xmlns="http://www.w3.org/2000/svg">
<path d="M6.39648 39.2271C5.4168 40.0498 4.04523 40.2373 2.87992 39.6853C1.71461 39.1333 0.982422 37.9565 0.982422 36.665V3.3378C0.982422 2.04637 1.72492 0.869502 2.87992 0.317519C4.03492 -0.234463 5.40648 -0.057412 6.39648 0.775769L26.1965 17.4394L27.3824 18.4392V3.3378C27.3824 1.49439 28.8571 0.0050764 30.6824 0.0050764C32.5077 0.0050764 33.9824 1.49439 33.9824 3.3378V36.665C33.9824 38.5085 32.5077 39.9978 30.6824 39.9978C28.8571 39.9978 27.3824 38.5085 27.3824 36.665V21.5636L26.1965 22.5635L6.39648 39.2271Z" fill="white"/>
</svg>
