<svg width="34" height="40" viewBox="0 0 34 40" fill="none" xmlns="http://www.w3.org/2000/svg">
<path d="M28.5684 39.2271C29.548 40.0498 30.9196 40.2373 32.0849 39.6853C33.2502 39.1333 33.9824 37.9565 33.9824 36.665V3.3378C33.9824 2.04637 33.2399 0.869502 32.0849 0.317519C30.9299 -0.234463 29.5584 -0.057412 28.5684 0.775769L8.76836 17.4394L7.58242 18.4392V3.3378C7.58242 1.49439 6.10773 0.0050764 4.28242 0.0050764C2.45711 0.0050764 0.982422 1.49439 0.982422 3.3378V36.665C0.982422 38.5085 2.45711 39.9978 4.28242 39.9978C6.10773 39.9978 7.58242 38.5085 7.58242 36.665V21.5636L8.76836 22.5635L28.5684 39.2271Z" fill="white"/>
</svg>
