<svg width="154" height="154" viewBox="0 0 154 154" fill="none" xmlns="http://www.w3.org/2000/svg">
<path d="M87.0714 87.5312H66.9286C46.5339 87.5312 30 103.999 30 124.312C30 128.005 33.0067 131 36.7143 131H117.286C120.993 131 124 128.005 124 124.312C124 103.999 107.466 87.5312 87.0714 87.5312ZM40.2792 120.969C41.9367 107.782 53.2482 97.5625 66.9286 97.5625H87.0714C100.743 97.5625 112.061 107.792 113.719 120.969H40.2792ZM77 77.5C91.8323 77.5 103.857 65.5231 103.857 50.75C103.857 35.9769 91.8323 24 77 24C62.1677 24 50.1429 35.9769 50.1429 50.75C50.1429 65.5252 62.1656 77.5 77 77.5ZM77 34.0312C86.2552 34.0312 93.7857 41.5317 93.7857 50.75C93.7857 59.9683 86.2552 67.4688 77 67.4688C67.7448 67.4688 60.2143 59.9662 60.2143 50.75C60.2143 41.5317 67.7469 34.0312 77 34.0312Z" fill="url(#paint0_linear_535_71)"/>
<circle cx="77" cy="77" r="75" stroke="url(#paint1_linear_535_71)" stroke-width="4"/>
<defs>
<linearGradient id="paint0_linear_535_71" x1="46.7857" y1="24" x2="115.76" y2="139.046" gradientUnits="userSpaceOnUse">
<stop stop-color="#0274D4"/>
<stop offset="1" stop-color="#FC8136"/>
</linearGradient>
<linearGradient id="paint1_linear_535_71" x1="19.5" y1="11" x2="136.5" y2="142.5" gradientUnits="userSpaceOnUse">
<stop stop-color="#0274D4"/>
<stop offset="1" stop-color="#FC8136"/>
</linearGradient>
</defs>
</svg>
