<svg width="42" height="48" viewBox="0 0 42 48" fill="none" xmlns="http://www.w3.org/2000/svg">
<path d="M25.5 28.5H16.5C7.3875 28.5 0 35.8875 0 45C0 46.6566 1.34344 48 3 48H39C40.6566 48 42 46.6566 42 45C42 35.8875 34.6125 28.5 25.5 28.5ZM4.59281 43.5C5.33344 37.5844 10.3875 33 16.5 33H25.5C31.6087 33 36.6656 37.5891 37.4062 43.5H4.59281ZM21 24C27.6272 24 33 18.6272 33 12C33 5.37281 27.6272 0 21 0C14.3728 0 9 5.37281 9 12C9 18.6281 14.3719 24 21 24ZM21 4.5C25.1353 4.5 28.5 7.86469 28.5 12C28.5 16.1353 25.1353 19.5 21 19.5C16.8647 19.5 13.5 16.1344 13.5 12C13.5 7.86469 16.8656 4.5 21 4.5Z" fill="url(#paint0_linear_406_9)"/>
<defs>
<linearGradient id="paint0_linear_406_9" x1="7.5" y1="3.55233e-07" x2="38.5" y2="51.5" gradientUnits="userSpaceOnUse">
<stop stop-color="#0274D4"/>
<stop offset="1" stop-color="#FC8136"/>
</linearGradient>
</defs>
</svg>
