<svg width="684" height="561" viewBox="0 0 684 561" fill="none" xmlns="http://www.w3.org/2000/svg">
<path d="M647.424 520.929H29.0665C21.3602 520.92 13.9722 517.851 8.52303 512.395C3.07391 506.939 0.00873897 499.541 0 491.825V58.5317C0.00874714 50.8155 3.07392 43.418 8.52303 37.9618C13.9722 32.5057 21.3602 29.4366 29.0664 29.4279H647.424C653.978 29.4069 660.345 31.6134 665.484 35.6864C670.622 39.7593 674.229 45.4578 675.713 51.8497C676.234 54.0385 676.495 56.2814 676.49 58.5317V491.825C676.482 499.541 673.416 506.939 667.967 512.395C662.518 517.851 655.13 520.92 647.424 520.929ZM29.0665 38.7015C23.8157 38.7074 18.7817 40.7985 15.0689 44.5161C11.3561 48.2337 9.26761 53.2742 9.2617 58.5317V491.825C9.26761 497.083 11.3561 502.123 15.0689 505.841C18.7817 509.558 23.8157 511.649 29.0664 511.655H647.424C652.675 511.649 657.709 509.558 661.421 505.841C665.134 502.123 667.223 497.083 667.229 491.825V58.5317C667.234 57.0136 667.059 55.5002 666.709 54.0232L666.703 53.9952C665.654 49.6576 663.187 45.7957 659.694 43.0242C656.2 40.2528 651.881 38.7312 647.424 38.7015L29.0665 38.7015Z" fill="#3F3D56"/>
<path d="M671.461 52.7022C670.194 47.3302 667.154 42.5433 662.835 39.1153C658.515 35.6872 653.167 33.8183 647.656 33.8105H28.8348C22.3513 33.8172 16.1352 36.3998 11.5506 40.9916C6.96608 45.5834 4.38753 51.8093 4.38086 58.3032V492.053C4.38753 498.547 6.96609 504.773 11.5506 509.365C16.1352 513.957 22.3512 516.539 28.8348 516.546H647.656C654.14 516.539 660.356 513.957 664.94 509.365C669.525 504.773 672.103 498.547 672.11 492.053V58.3032C672.116 56.417 671.898 54.5369 671.461 52.7022Z" fill="#6C63FF"/>
<path d="M264.043 70.2374C256.729 66.5364 247.932 64.9632 240.276 67.8945C232.911 70.7148 227.528 77.3474 224.447 84.6004C221.366 91.8535 220.286 99.7713 219.236 107.58C218.818 110.69 218.792 114.615 221.578 116.067C222.594 116.475 223.709 116.567 224.778 116.329C225.847 116.092 226.818 115.537 227.565 114.737C229.026 113.111 230.21 111.257 231.07 109.249C235.45 101.097 241.925 94.2581 249.829 89.4358C257.733 84.6135 266.781 81.982 276.041 81.8119L283.488 85.1428C277.474 79.577 271.356 73.9384 264.043 70.2374Z" fill="#FF6582"/>
<path d="M344.984 135.331C339.199 125.761 332.344 115.542 321.609 112.417C309.177 108.798 296.406 115.987 285.573 123.082C253.177 144.299 221.978 167.292 192.121 191.956L192.154 192.328C215.399 190.724 238.644 189.121 261.889 187.517C278.683 186.359 296.055 185.04 310.897 177.093C316.529 174.077 322.018 170.049 328.4 169.768C336.329 169.42 343.243 174.959 348.676 180.746C380.814 214.979 390.114 267.329 426.171 297.406C403.435 241.319 376.287 187.124 344.984 135.331Z" fill="white"/>
<path d="M119.276 367.102C136.076 367.562 152.826 369.147 169.415 371.847C219.312 379.99 267.151 397.799 310.265 424.281C324.603 433.083 338.34 442.835 351.383 453.473C352.983 454.78 354.571 456.099 356.149 457.431C357.162 458.286 358.634 456.824 357.613 455.963C344.663 445.036 331.004 434.986 316.726 425.878C302.462 416.786 287.622 408.638 272.301 401.487C256.957 394.32 241.17 388.152 225.036 383.02C208.927 377.896 192.502 373.832 175.866 370.852C159.271 367.875 142.499 366.005 125.658 365.252C123.531 365.158 121.404 365.083 119.276 365.025C119.008 365.035 118.754 365.148 118.567 365.342C118.381 365.536 118.276 365.795 118.276 366.064C118.276 366.333 118.381 366.592 118.567 366.786C118.754 366.979 119.008 367.093 119.276 367.102Z" fill="white"/>
<path d="M114.892 301.989C145.019 304.098 175.157 306.242 205.164 309.709C235.247 312.96 265.079 318.219 294.461 325.45C320.439 331.888 345.725 340.853 369.958 352.218C392.655 362.881 414.01 376.195 433.579 391.882C452.902 407.362 469.784 425.668 483.655 446.184C485.384 448.777 487.059 451.405 488.678 454.069C489.372 455.207 491.167 454.165 490.469 453.021C477.38 431.777 461.094 412.68 442.186 396.406C423.132 380.029 402.158 366.033 379.726 354.725C356.355 342.936 331.871 333.498 306.635 326.551C277.382 318.597 247.591 312.778 217.497 309.137C187.182 305.238 156.698 302.873 126.219 300.71C122.444 300.442 118.668 300.177 114.892 299.913C113.56 299.82 113.566 301.896 114.892 301.989Z" fill="white"/>
<path d="M111.763 308.876C141.89 310.985 172.028 313.128 202.035 316.596C232.118 319.847 261.95 325.105 291.333 332.337C317.31 338.774 342.596 347.74 366.829 359.105C389.526 369.768 410.881 383.082 430.45 398.769C449.774 414.249 466.655 432.555 480.526 453.07C482.256 455.663 483.93 458.292 485.55 460.955C486.244 462.094 488.038 461.052 487.34 459.908C474.251 438.663 457.965 419.567 439.057 403.293C420.003 386.916 399.029 372.919 376.598 361.612C353.226 349.822 328.742 340.385 303.506 333.438C274.253 325.484 244.462 319.664 214.368 316.024C184.054 312.124 153.57 309.76 123.091 307.597C119.315 307.329 115.539 307.063 111.763 306.8C110.431 306.707 110.437 308.783 111.763 308.876Z" fill="white"/>
<path d="M544.619 429.154C541.066 424.663 537.539 420.15 534.037 415.617C505.505 378.665 478.687 340.465 453.583 301.016C436.532 274.225 420.326 246.918 404.966 219.098C397.653 205.871 390.541 192.541 383.629 179.107C378.266 168.691 373.022 158.212 367.898 147.672C366.433 144.661 365.009 141.636 363.592 138.605C360.254 131.476 356.977 124.313 353.459 117.281C349.451 109.266 344.571 100.864 337.209 95.4792C333.859 92.9281 329.854 91.3845 325.66 91.0289C319.667 90.6413 314.138 93.1191 308.94 95.8253C270.873 115.864 235.342 140.399 203.107 168.906C170.823 197.297 141.965 229.373 117.124 264.48C116.364 265.566 114.567 264.528 115.334 263.435C118.355 259.157 121.435 254.926 124.575 250.741C163.622 198.74 211.499 154.022 266.018 118.631C275.19 112.678 284.535 107.005 294.052 101.611C298.849 98.8914 303.667 96.206 308.567 93.6868C313.371 91.2159 318.472 88.9942 323.96 88.9112C342.635 88.6205 352.305 109.799 358.947 124.05C361.035 128.535 363.147 133.006 365.285 137.463C373.365 154.385 381.756 171.153 390.458 187.766C395.828 198.023 401.317 208.22 406.922 218.357C424.367 249.925 442.909 280.853 462.548 311.142C488.564 351.264 516.41 390.112 546.084 427.687C546.9 428.725 545.441 430.206 544.619 429.154Z" fill="white"/>
<path d="M438.692 257.651L466.53 247.476L480.352 242.425C484.818 240.628 489.372 239.061 493.998 237.729C498.042 236.574 502.336 236.629 506.349 237.886C509.928 239.21 513.205 241.239 515.983 243.853C518.821 246.465 521.463 249.283 523.885 252.285C526.894 255.899 529.859 259.55 532.837 263.19C545.128 278.21 557.339 293.296 569.47 308.447C581.6 323.597 593.65 338.812 605.618 354.092C617.615 369.408 629.53 384.789 641.363 400.234C642.812 402.126 644.26 404.019 645.707 405.913C646.507 406.959 648.309 405.927 647.499 404.866C635.579 389.266 623.576 373.73 611.49 358.258C599.375 342.748 587.175 327.305 574.892 311.927C562.61 296.55 550.244 281.239 537.795 265.995C534.694 262.197 531.587 258.403 528.476 254.614C525.851 251.417 523.256 248.186 520.377 245.211C515.092 239.75 508.49 234.924 500.587 234.793C495.958 234.955 491.397 235.957 487.127 237.75C482.473 239.432 477.83 241.146 473.182 242.845L445.148 253.09L438.14 255.652C436.896 256.106 437.434 258.11 438.692 257.651Z" fill="white"/>
<path d="M300.384 86.7271L298.527 87.6384C293.703 77.8098 285.78 69.8356 275.976 64.9417C266.172 60.0478 255.03 58.5052 244.263 60.5509C233.496 62.5966 223.699 68.1175 216.38 76.2647C209.06 84.412 204.623 94.7346 203.749 105.646C202.818 116.794 205.7 127.928 211.924 137.229L210.2 138.372C203.718 128.686 200.717 117.091 201.686 105.481C202.596 94.1188 207.216 83.3691 214.839 74.8847C222.461 66.4003 232.662 60.6509 243.875 58.5204C255.087 56.3898 266.69 57.9961 276.9 63.0921C287.109 68.1882 295.36 76.4921 300.384 86.7271Z" fill="#FF6582"/>
<path d="M164.65 142.381C157.519 138.851 149.581 137.291 141.652 137.861C133.722 138.43 126.087 141.109 119.528 145.623C144.247 149.907 168.695 155.64 192.747 162.791C182.759 156.91 174.946 147.697 164.65 142.381Z" fill="white"/>
<path d="M119.375 145.885L116.398 147.763C117.405 147.106 118.452 146.489 119.527 145.906L119.375 145.885Z" fill="white"/>
<path d="M514.914 257.402C512.17 254.056 509.203 250.553 505.099 249.193L501.267 249.345C530.437 300.98 569.834 346.098 617.04 381.93L514.914 257.402Z" fill="white"/>
<path d="M201.018 158.816C199.932 157.607 198.853 156.398 197.76 155.188C189.142 145.668 179.895 136.258 168.06 130.8C162.418 128.116 156.258 126.689 150.008 126.62C143.559 126.797 137.201 128.182 131.264 130.704C128.442 131.83 125.683 133.108 122.965 134.469C119.859 136.03 116.809 137.695 113.772 139.374C108.073 142.525 102.448 145.813 96.8961 149.24C85.8503 156.059 75.1503 163.398 64.7963 171.258C59.4289 175.334 54.1723 179.544 49.0264 183.888C44.2402 187.922 39.5508 192.065 34.9582 196.317C33.9761 197.222 32.5097 195.757 33.4918 194.852C34.7022 193.726 35.9264 192.607 37.1507 191.501C40.609 188.378 44.1227 185.315 47.6917 182.312C54.1999 176.827 60.8767 171.553 67.722 166.491C78.3667 158.615 89.3778 151.273 100.755 144.466C106.441 141.067 112.205 137.81 118.047 134.697C119.811 133.757 121.595 132.838 123.4 131.968C127.496 129.904 131.752 128.174 136.127 126.793C142.323 124.791 148.879 124.147 155.348 124.907C161.593 125.814 167.61 127.894 173.082 131.035C184.702 137.523 193.714 147.554 202.484 157.344C203.369 158.339 201.91 159.81 201.018 158.816Z" fill="white"/>
<path d="M54.9521 180.321H51.9414V81.3945H157.702V84.4091H54.9521V180.321Z" fill="#2F2E41"/>
<path d="M624.549 180.321H621.539V84.4091H518.789V81.3945H624.549V180.321Z" fill="#2F2E41"/>
<path d="M624.549 468.961H518.789V465.947H621.539V370.035H624.549V468.961Z" fill="#2F2E41"/>
<path d="M157.702 468.961H51.9414V370.035H54.9521V465.947H157.702V468.961Z" fill="#2F2E41"/>
</svg>
