<svg width="120" height="118" viewBox="0 0 120 118" fill="none" xmlns="http://www.w3.org/2000/svg">
<g clip-path="url(#clip0_683_8)">
<path d="M19.7143 3C11.5984 3 5 9.59844 5 17.7143V91.2857C5 99.4016 11.5984 106 19.7143 106H93.2857C101.402 106 108 99.4016 108 91.2857V35.4864C108 31.5779 106.46 27.8304 103.701 25.0714L85.9286 7.29933C83.1696 4.5404 79.4221 3 75.5136 3H19.7143ZM19.7143 25.0714C19.7143 21.002 23.002 17.7143 27.0714 17.7143H71.2143C75.2837 17.7143 78.5714 21.002 78.5714 25.0714V39.7857C78.5714 43.8551 75.2837 47.1429 71.2143 47.1429H27.0714C23.002 47.1429 19.7143 43.8551 19.7143 39.7857V25.0714ZM56.5 61.8571C60.4025 61.8571 64.1451 63.4074 66.9046 66.1669C69.664 68.9263 71.2143 72.6689 71.2143 76.5714C71.2143 80.4739 69.664 84.2165 66.9046 86.976C64.1451 89.7355 60.4025 91.2857 56.5 91.2857C52.5975 91.2857 48.8549 89.7355 46.0954 86.976C43.336 84.2165 41.7857 80.4739 41.7857 76.5714C41.7857 72.6689 43.336 68.9263 46.0954 66.1669C48.8549 63.4074 52.5975 61.8571 56.5 61.8571Z" fill="url(#paint0_linear_683_8)"/>
<rect x="62" y="70" width="51" height="50" rx="25" fill="url(#paint1_linear_683_8)"/>
<path d="M101.393 96.5296C102.202 95.6836 102.202 94.3096 101.393 93.4636L91.0354 82.6345C90.2262 81.7885 88.912 81.7885 88.1029 82.6345C87.2937 83.4805 87.2937 84.8545 88.1029 85.7005L94.9325 92.8342H75.0715C73.9257 92.8342 73 93.802 73 95C73 96.198 73.9257 97.1658 75.0715 97.1658H94.926L88.1093 104.299C87.3001 105.146 87.3001 106.519 88.1093 107.365C88.9185 108.212 90.2327 108.212 91.0419 107.365L101.4 96.5364L101.393 96.5296Z" fill="white"/>
<rect x="62" y="70" width="51" height="50" rx="25" stroke="white" stroke-width="4"/>
</g>
<defs>
<linearGradient id="paint0_linear_683_8" x1="8" y1="9.5" x2="105.5" y2="112" gradientUnits="userSpaceOnUse">
<stop stop-color="#FC8136"/>
<stop offset="1" stop-color="#0274D4"/>
</linearGradient>
<linearGradient id="paint1_linear_683_8" x1="8.5" y1="7.49999" x2="123.5" y2="128" gradientUnits="userSpaceOnUse">
<stop stop-color="#FC8136"/>
<stop offset="1" stop-color="#0274D4"/>
</linearGradient>
<clipPath id="clip0_683_8">
<rect width="120" height="118" fill="white"/>
</clipPath>
</defs>
</svg>
