<svg width="266" height="263" viewBox="0 0 266 263" fill="none" xmlns="http://www.w3.org/2000/svg">
<g clip-path="url(#clip0_727_748)">
<path d="M266 262.399C266 262.732 265.731 263 265.397 263H0.603313C0.268717 263 0 262.732 0 262.399C0 262.065 0.268717 261.797 0.603313 261.797H265.397C265.731 261.797 266 262.065 266 262.399Z" fill="#3F3D56"/>
<path d="M183.803 233.105L186.845 245.745L177.719 248.273L175.691 234.622L183.803 233.105Z" fill="#FFB6B6"/>
<path d="M198.506 192.152L188.873 200.242L182.789 209.848L191.408 215.409L206.11 198.725L198.506 192.152Z" fill="#FFB6B6"/>
<path d="M195.464 108.73L203.575 136.032C203.575 136.032 239.571 167.379 236.022 173.951C232.474 180.524 208.645 198.725 208.645 198.725C208.645 198.725 210.414 204.545 205.22 202.141C200.027 199.736 194.45 193.163 194.45 193.163C194.45 193.163 194.45 188.108 196.985 189.119C199.52 190.13 211.18 176.479 211.18 176.479L185.831 153.222V230.989C185.831 230.989 191.915 236.294 185.831 236.722C179.747 237.15 174.17 238.161 174.17 238.161C174.17 238.161 167.072 235.633 169.607 233.105L162.003 191.647L156.426 141.088L160.482 114.798L195.464 108.73Z" fill="#2F2E41"/>
<path d="M179.241 244.227C179.241 244.227 179.748 242.205 181.775 242.205H187.969C187.969 242.205 189.887 250.8 189.38 250.8C188.873 250.8 197.492 261.923 188.366 262.429C179.241 262.934 176.706 261.923 176.706 261.923L175.692 257.932C175.692 257.932 174.171 255.35 174.678 253.328C175.185 251.306 179.241 244.227 179.241 244.227Z" fill="#2F2E41"/>
<path d="M191.914 211.365C191.914 211.365 197.737 211.274 196.347 212.836C194.956 214.399 192.421 216.927 192.421 216.927C192.421 216.927 186.391 229.061 183.576 226.786C180.761 224.51 176.198 199.231 177.719 196.198C179.24 193.164 181.268 193.164 181.268 193.164L190.621 198.774C190.621 198.774 184.816 212.882 191.914 211.365Z" fill="#2F2E41"/>
<path d="M177.72 65.7558L179.748 53.1161L166.059 47.5547L164.031 66.767L177.72 65.7558Z" fill="#FFB6B6"/>
<path opacity="0.1" d="M177.72 65.7558L179.748 53.1161L166.059 47.5547L164.031 66.767L177.72 65.7558Z" fill="black"/>
<path d="M163.27 63.9861L179.493 59.9414L196.731 65.5029C196.731 65.5029 204.336 86.7375 201.801 94.3213C199.266 101.905 199.266 116.718 199.266 116.718C199.266 116.718 199.012 110.247 184.31 114.798C169.607 119.348 158.961 118.842 158.961 118.842L158.454 100.641L152.085 84.4741C149.362 77.5639 152.297 69.7182 158.891 66.2732L163.27 63.9861Z" fill="#E6E6E6"/>
<path d="M237.744 123.546C240.034 126.281 240.474 129.676 238.728 131.128C236.983 132.581 233.713 131.541 231.423 128.805C230.493 127.724 229.837 126.437 229.508 125.052L219.955 113.341L224.608 109.586L234.383 120.995C235.692 121.565 236.844 122.44 237.744 123.546Z" fill="#FFB6B6"/>
<path d="M195.995 65.6641L192.67 78.7973L208.943 104.774L225.555 121.423L230.939 116.969L214.185 96.1806L201.486 69.3959L195.995 65.6641Z" fill="#E6E6E6"/>
<path d="M234.732 52.9877C246.321 52.1337 254.837 39.5898 253.753 24.9702C252.67 10.3506 242.397 -0.808569 230.809 0.0454528C219.22 0.899475 210.704 13.4433 211.788 28.0629C212.871 42.6825 223.144 53.8417 234.732 52.9877Z" fill="url(#paint0_linear_727_748)"/>
<path d="M234.291 52.9883H233.277V153.822H234.291V52.9883Z" fill="#2F2E41"/>
<path d="M234.544 50.8594L234.665 54.4324L236.285 57.74L229.529 57.3964L232.369 54.5481L232.048 51.3016L234.544 50.8594Z" fill="#6C63FF"/>
<path d="M174.262 57.181C181.971 57.181 188.221 50.9486 188.221 43.2604C188.221 35.5723 181.971 29.3398 174.262 29.3398C166.552 29.3398 160.303 35.5723 160.303 43.2604C160.303 50.9486 166.552 57.181 174.262 57.181Z" fill="#FFB6B6"/>
<path d="M173.147 24.5446C173.551 24.7797 174.092 24.424 174.221 23.9758C174.351 23.5276 174.2 23.0518 174.05 22.6099L173.297 20.3853C172.763 18.8075 172.196 17.1746 171.039 15.9738C169.293 14.1612 166.518 13.7001 164.02 14.0342C160.812 14.4632 157.647 16.1955 156.155 19.06C154.664 21.9245 155.299 25.9216 157.994 27.7088C154.153 32.0994 152.814 36.9926 153.025 42.8156C153.237 48.6386 159.6 53.9976 163.749 58.0997C164.676 57.5395 165.519 54.9142 165.009 53.9605C164.499 53.0067 165.23 51.9018 164.598 51.0233C163.967 50.1449 163.439 51.5437 164.077 50.6702C164.48 50.119 162.909 48.8509 163.507 48.521C166.402 46.9254 167.364 43.3272 169.183 40.5719C171.375 37.2484 175.129 34.9977 179.1 34.6243C181.288 34.4186 183.599 34.7912 185.393 36.0579C187.186 37.3246 188.347 39.5882 187.931 41.7401C189.008 40.6496 189.544 39.0514 189.342 37.5341C189.14 36.0168 188.204 34.6137 186.878 33.8415C187.684 31.1841 186.994 28.1273 185.124 26.0708C183.253 24.0144 175.666 24.3647 172.936 24.9059" fill="#2F2E41"/>
<path d="M172.724 34.7051C169.107 35.0944 166.496 38.2185 164.291 41.1036C163.02 42.7665 161.689 44.6029 161.721 46.6934C161.753 48.8071 163.17 50.6199 163.847 52.623C164.954 55.8971 163.875 59.7925 161.24 62.0359C163.844 62.5286 166.659 60.5817 167.108 57.977C167.632 54.9449 165.327 52.0185 165.6 48.9538C165.84 46.2538 167.974 44.1759 169.788 42.1571C171.601 40.1383 173.305 37.4595 172.471 34.8798" fill="#2F2E41"/>
<path d="M159.41 118.59H55.1385C43.3141 118.59 33.7285 128.149 33.7285 139.941V240.771C33.7285 252.563 43.3141 262.122 55.1384 262.122H159.41C171.234 262.122 180.82 252.563 180.82 240.771V139.941C180.82 128.149 171.234 118.59 159.41 118.59Z" fill="white"/>
<path d="M159.409 262.627H55.1377C43.0527 262.627 33.2207 252.823 33.2207 240.771V139.94C33.2207 127.889 43.0527 118.084 55.1377 118.084H159.409C171.494 118.084 181.326 127.889 181.326 139.94V240.771C181.326 252.823 171.494 262.627 159.409 262.627ZM55.1377 119.095C43.6117 119.095 34.2347 128.446 34.2347 139.94V240.771C34.2347 252.265 43.6117 261.616 55.1377 261.616H159.409C170.935 261.616 180.312 252.265 180.312 240.771V139.94C180.312 128.446 170.935 119.095 159.409 119.095H55.1377Z" fill="#3F3D56"/>
<path d="M148.408 128.508C149.743 128.508 150.826 127.428 150.826 126.097C150.826 124.765 149.743 123.686 148.408 123.686C147.073 123.686 145.99 124.765 145.99 126.097C145.99 127.428 147.073 128.508 148.408 128.508Z" fill="#3F3D56"/>
<path d="M155.057 128.508C156.392 128.508 157.474 127.428 157.474 126.097C157.474 124.765 156.392 123.686 155.057 123.686C153.721 123.686 152.639 124.765 152.639 126.097C152.639 127.428 153.721 128.508 155.057 128.508Z" fill="#3F3D56"/>
<path d="M161.705 128.508C163.04 128.508 164.123 127.428 164.123 126.097C164.123 124.765 163.04 123.686 161.705 123.686C160.37 123.686 159.287 124.765 159.287 126.097C159.287 127.428 160.37 128.508 161.705 128.508Z" fill="#3F3D56"/>
<path d="M51.7197 226.822C50.9685 226.822 50.3574 227.432 50.3574 228.181C50.3574 228.546 50.4989 228.884 50.7556 229.133C51.0146 229.398 51.3538 229.539 51.7196 229.539H160.771C161.523 229.539 162.134 228.93 162.134 228.181C162.134 227.815 161.992 227.478 161.735 227.228C161.476 226.964 161.137 226.822 160.771 226.822H51.7197Z" fill="#E6E6E6"/>
<path d="M110.031 226.369V229.992H51.7206C51.2211 229.992 50.767 229.792 50.4401 229.457C50.1041 229.131 49.9043 228.679 49.9043 228.18C49.9043 227.184 50.7217 226.369 51.7206 226.369L110.031 226.369Z" fill="url(#paint1_linear_727_748)"/>
<path d="M158.501 219.577H140.338C138.335 219.577 136.705 217.953 136.705 215.955C136.705 213.957 138.335 212.332 140.338 212.332H158.501C160.504 212.332 162.133 213.957 162.133 215.955C162.133 217.953 160.504 219.577 158.501 219.577Z" fill="#E6E6E6"/>
<path d="M90.2665 222.165L77.5696 179.621L76.5977 179.909L89.25 222.304" fill="#2F2E41"/>
<path d="M90.7048 125.341C102.293 124.487 110.809 111.943 109.726 97.3237C108.642 82.7042 98.3699 71.5449 86.7815 72.399C75.1931 73.253 66.6771 85.7968 67.7605 100.416C68.8438 115.036 79.1163 126.195 90.7048 125.341Z" fill="url(#paint2_linear_727_748)"/>
<path d="M90.264 125.342H89.25V226.175H90.264V125.342Z" fill="#2F2E41"/>
<path d="M78.14 178.389L79.2784 181.779L81.7761 184.489L75.2031 186.08L77.1103 182.543L75.8743 179.522L78.14 178.389Z" fill="#6C63FF"/>
<path d="M90.5164 123.213L90.638 126.786L92.2572 130.094L85.502 129.75L88.3415 126.902L88.0205 123.655L90.5164 123.213Z" fill="#6C63FF"/>
<path d="M78.4814 179.277C89.3344 175.137 93.8748 160.681 88.6227 146.989C83.3705 133.298 70.3147 125.555 59.4617 129.695C48.6086 133.835 44.0683 148.291 49.3204 161.983C54.5726 175.675 67.6284 183.418 78.4814 179.277Z" fill="url(#paint3_linear_727_748)"/>
<path d="M170.604 113.415C174.024 114.445 176.264 117.039 175.606 119.209C174.949 121.38 171.644 122.304 168.223 121.273C166.851 120.881 165.593 120.166 164.554 119.188L150.119 114.643L151.936 108.955L166.391 113.126C167.798 112.886 169.243 112.985 170.604 113.415Z" fill="#FFB6B6"/>
<path d="M145.526 76.121L160.736 64.998L160.229 86.2327L146.033 104.434L161.243 110.501L160.736 119.163C160.736 119.163 141.47 114.546 138.428 114.04C135.386 113.534 132.852 106.456 132.852 106.456L145.526 76.121Z" fill="#E6E6E6"/>
</g>
<defs>
<linearGradient id="paint0_linear_727_748" x1="230.809" y1="0.0454528" x2="234.711" y2="52.9893" gradientUnits="userSpaceOnUse">
<stop stop-color="#6C63FF"/>
<stop offset="1" stop-color="#FC8136"/>
</linearGradient>
<linearGradient id="paint1_linear_727_748" x1="50.1596" y1="228.035" x2="110.2" y2="229.175" gradientUnits="userSpaceOnUse">
<stop stop-color="#6C63FF"/>
<stop offset="1" stop-color="#FC8136"/>
</linearGradient>
<linearGradient id="paint2_linear_727_748" x1="86.7815" y1="72.399" x2="90.6833" y2="125.343" gradientUnits="userSpaceOnUse">
<stop stop-color="#6C63FF"/>
<stop offset="1" stop-color="#FC8136"/>
</linearGradient>
<linearGradient id="paint3_linear_727_748" x1="59.4617" y1="129.695" x2="78.39" y2="179.312" gradientUnits="userSpaceOnUse">
<stop stop-color="#6C63FF"/>
<stop offset="1" stop-color="#FC8136"/>
</linearGradient>
<clipPath id="clip0_727_748">
<rect width="266" height="263" fill="white"/>
</clipPath>
</defs>
</svg>
