<svg width="64" height="64" viewBox="0 0 64 64" fill="none" xmlns="http://www.w3.org/2000/svg">
<path d="M43.3569 21.5047C40.4576 18.5984 36.5964 17 32.4931 17C24.0234 17 17.1315 23.892 17.1315 32.3616C17.1315 35.0672 17.8373 37.7105 19.1797 40.0424L17 48L25.1444 45.8618C27.3864 47.0866 29.9121 47.7301 32.4862 47.7301H32.4931C40.9558 47.7301 48 40.8382 48 32.3685C48 28.2652 46.2562 24.4109 43.3569 21.5047V21.5047ZM32.4931 45.1422C30.1958 45.1422 27.9469 44.5263 25.9886 43.3638L25.525 43.0871L20.6951 44.3533L21.9821 39.6411L21.6777 39.1567C20.3975 37.1223 19.7263 34.7766 19.7263 32.3616C19.7263 25.3243 25.4558 19.5949 32.5 19.5949C35.9114 19.5949 39.1152 20.9234 41.5232 23.3384C43.9312 25.7533 45.4121 28.9571 45.4051 32.3685C45.4051 39.4127 39.5304 45.1422 32.4931 45.1422V45.1422ZM39.4958 35.5792C39.1152 35.3855 37.2261 34.4583 36.8732 34.3337C36.5203 34.2022 36.2643 34.14 36.0083 34.5275C35.7522 34.915 35.0187 35.773 34.7904 36.0359C34.569 36.292 34.3406 36.3266 33.96 36.1328C31.7042 35.0049 30.2234 34.1192 28.7357 31.5658C28.3413 30.8877 29.1301 30.9362 29.8636 29.4692C29.9882 29.2132 29.9259 28.9917 29.829 28.798C29.7321 28.6042 28.9641 26.7152 28.6458 25.9471C28.3344 25.1998 28.0161 25.3036 27.7808 25.2897C27.5594 25.2759 27.3033 25.2759 27.0473 25.2759C26.7913 25.2759 26.3761 25.3728 26.0232 25.7533C25.6703 26.1408 24.6808 27.0681 24.6808 28.9571C24.6808 30.8462 26.0578 32.673 26.2446 32.929C26.4384 33.185 28.9502 37.06 32.8045 38.7277C35.2402 39.7795 36.1951 39.8694 37.4129 39.6895C38.1533 39.5788 39.6826 38.7623 40.0009 37.8627C40.3192 36.9632 40.3192 36.1951 40.2223 36.0359C40.1324 35.8629 39.8763 35.7661 39.4958 35.5792Z" fill="url(#paint0_linear_173_161)"/>
<rect x="1" y="1" width="62" height="62" rx="31" stroke="url(#paint1_linear_173_161)" stroke-width="2"/>
<defs>
<linearGradient id="paint0_linear_173_161" x1="23" y1="19.5" x2="42.5" y2="44" gradientUnits="userSpaceOnUse">
<stop stop-color="#0274D4"/>
<stop offset="1" stop-color="#FC8136"/>
</linearGradient>
<linearGradient id="paint1_linear_173_161" x1="13" y1="6" x2="53.5" y2="59" gradientUnits="userSpaceOnUse">
<stop stop-color="#0274D4"/>
<stop offset="1" stop-color="#FC8136"/>
</linearGradient>
</defs>
</svg>
