<svg width="427" height="302" viewBox="0 0 427 302" fill="none" xmlns="http://www.w3.org/2000/svg">
<path d="M127.974 64.7143C127.974 52.7826 137.501 43.1429 149.294 43.1429C161.087 43.1429 170.614 52.7826 170.614 64.7143V69.9723C170.614 88.6451 169.015 107.25 165.884 125.586L109.652 142.641C82.6017 150.865 64.0797 176.077 64.0797 204.659V253.127C64.0797 280.092 85.7331 302 112.383 302C129.706 302 145.696 292.63 154.291 277.395L163.552 261.014C181.408 229.331 194.533 195.154 202.462 159.561L265.356 140.484L257.028 165.763C254.83 172.369 255.962 179.582 259.96 185.177C263.957 190.772 270.42 194.143 277.282 194.143H362.497C374.29 194.143 383.817 184.503 383.817 172.571C383.817 160.64 374.29 151 362.497 151H306.798L318.79 114.666C321.322 107.048 319.39 98.6219 313.86 92.8245C308.33 87.0272 300.068 84.8701 292.406 87.1621L210.856 111.969C212.455 98.0152 213.255 84.0612 213.255 69.9723V64.7143C213.255 28.9866 184.606 0 149.294 0C113.982 0 85.3333 28.9866 85.3333 64.7143V86.2857C85.3333 98.2174 94.8608 107.857 106.654 107.857C118.446 107.857 127.974 98.2174 127.974 86.2857V64.7143ZM121.844 184.031L154.491 174.122C147.562 196.907 138.168 218.883 126.441 239.645L117.18 256.026C116.181 257.779 114.316 258.925 112.25 258.925C109.119 258.925 106.587 256.363 106.587 253.195V204.659C106.587 195.154 112.783 186.728 121.778 183.964L121.844 184.031ZM16.0425 226.5C7.18121 226.5 0.0522461 233.713 0.0522461 242.679C0.0522461 251.644 7.18121 258.857 16.0425 258.857H42.8927C42.7594 256.97 42.6928 255.082 42.6928 253.127V226.5H16.0425ZM410.468 258.857C419.329 258.857 426.458 251.644 426.458 242.679C426.458 233.713 419.329 226.5 410.468 226.5H203.861C199.397 237.488 194.4 248.274 189.003 258.857H410.468Z" fill="white"/>
</svg>
