<svg width="120" height="118" viewBox="0 0 120 118" fill="none" xmlns="http://www.w3.org/2000/svg">
<path d="M19.7143 3C11.5984 3 5 9.59844 5 17.7143V91.2857C5 99.4016 11.5984 106 19.7143 106H93.2857C101.402 106 108 99.4016 108 91.2857V35.4864C108 31.5779 106.46 27.8304 103.701 25.0714L85.9286 7.29933C83.1696 4.5404 79.4221 3 75.5136 3H19.7143ZM19.7143 25.0714C19.7143 21.002 23.002 17.7143 27.0714 17.7143H71.2143C75.2837 17.7143 78.5714 21.002 78.5714 25.0714V39.7857C78.5714 43.8551 75.2837 47.1429 71.2143 47.1429H27.0714C23.002 47.1429 19.7143 43.8551 19.7143 39.7857V25.0714ZM56.5 61.8571C60.4025 61.8571 64.1451 63.4074 66.9046 66.1669C69.664 68.9263 71.2143 72.6689 71.2143 76.5714C71.2143 80.4739 69.664 84.2165 66.9046 86.976C64.1451 89.7355 60.4025 91.2857 56.5 91.2857C52.5975 91.2857 48.8549 89.7355 46.0954 86.976C43.336 84.2165 41.7857 80.4739 41.7857 76.5714C41.7857 72.6689 43.336 68.9263 46.0954 66.1669C48.8549 63.4074 52.5975 61.8571 56.5 61.8571Z" fill="white"/>
<rect x="62" y="66" width="51" height="50" rx="25" fill="#FC8136"/>
<path d="M101.393 92.5296C102.202 91.6836 102.202 90.3096 101.393 89.4636L91.0354 78.6345C90.2262 77.7885 88.912 77.7885 88.1029 78.6345C87.2937 79.4805 87.2937 80.8545 88.1029 81.7005L94.9325 88.8342H75.0715C73.9257 88.8342 73 89.802 73 91C73 92.198 73.9257 93.1658 75.0715 93.1658H94.926L88.1093 100.299C87.3001 101.146 87.3001 102.519 88.1093 103.365C88.9185 104.212 90.2327 104.212 91.0419 103.365L101.4 92.5364L101.393 92.5296Z" fill="white"/>
<rect x="62" y="66" width="51" height="50" rx="25" stroke="white" stroke-width="4"/>
</svg>
