<svg width="31" height="31" viewBox="0 0 31 31" fill="none" xmlns="http://www.w3.org/2000/svg">
<path d="M30.0825 5.29416C31.2929 4.08379 31.2929 2.11815 30.0825 0.907778C28.8722 -0.302593 26.9065 -0.302593 25.6962 0.907778L15.5 11.1136L5.29416 0.91746C4.08379 -0.29291 2.11815 -0.29291 0.907778 0.91746C-0.302593 2.12783 -0.302593 4.09347 0.907778 5.30384L11.1136 15.5L0.91746 25.7058C-0.29291 26.9162 -0.29291 28.8819 0.91746 30.0922C2.12783 31.3026 4.09347 31.3026 5.30384 30.0922L15.5 19.8864L25.7058 30.0825C26.9162 31.2929 28.8819 31.2929 30.0922 30.0825C31.3026 28.8722 31.3026 26.9065 30.0922 25.6962L19.8864 15.5L30.0825 5.29416Z" fill="white"/>
</svg>
