<svg width="55" height="39" viewBox="0 0 55 39" fill="none" xmlns="http://www.w3.org/2000/svg">
<path d="M53.8507 6.10218C53.2182 3.70023 51.3545 1.80852 48.9881 1.16655C44.699 0 27.5 0 27.5 0C27.5 0 10.3011 0 6.01186 1.16655C3.64552 1.80863 1.78182 3.70023 1.14928 6.10218C0 10.4559 0 19.5394 0 19.5394C0 19.5394 0 28.623 1.14928 32.9766C1.78182 35.3786 3.64552 37.1915 6.01186 37.8335C10.3011 39 27.5 39 27.5 39C27.5 39 44.6989 39 48.9881 37.8335C51.3545 37.1915 53.2182 35.3786 53.8507 32.9766C55 28.623 55 19.5394 55 19.5394C55 19.5394 55 10.4559 53.8507 6.10218V6.10218ZM21.875 27.7866V11.2922L36.2499 19.5396L21.875 27.7866V27.7866Z" fill="#FF0000"/>
</svg>
